<!--
  上記＋注ぎ口付近の一滴（線のみ）
-->
<svg xmlns="http://www.w3.org/2000/svg" viewBox="0 0 56 56" fill="none" role="img" aria-label="tokutoku mark with drop">
  <g
    transform="translate(28 28) rotate(-45) translate(-16 -21)"
    stroke="currentColor"
    stroke-linecap="round"
    stroke-linejoin="round"
  >
    <path
      stroke-width="2.2"
      d="M 11 2.5 L 21 2.5 C 21 6 19.8 8 18.2 10 C 17.2 11.2 17.2 12.2 18.4 13.2 C 21.5 17 26 22 28 27.5 A 12 12 0 1 1 4 27.5 C 6 22 10.5 17 13.6 13.2 C 14.8 12.2 14.8 11.2 13.8 10 C 12.2 8 11 6 11 2.5 Z"
    />
    <path stroke-width="1.5" d="M 12.8 3.2 Q 16 2.4 19.2 3.2" />
    <path stroke-width="1.55" d="M 5.8 24.5 Q 11 20.8 16 22.2 Q 21 23.5 26.2 24.5" />
    <ellipse cx="9.5" cy="0.5" rx="2" ry="2.5" stroke-width="2.2" fill="none" />
  </g>
</svg>
